<mxfile host="app.diagrams.net" modified="2022-06-20T03:45:09.955Z" agent="5.0 (Macintosh; Intel Mac OS X 10_15_7) AppleWebKit/537.36 (KHTML, like Gecko) Chrome/102.0.5005.115 Safari/537.36" etag="wz4Ul2me4o-nuvT5h2_i" version="19.0.2" type="github">
  <diagram id="wgBlVhovMK9ZvSngc1W-" name="第 1 页">
    <mxGraphModel dx="3026" dy="1594" grid="1" gridSize="10" guides="1" tooltips="1" connect="1" arrows="1" fold="1" page="0" pageScale="1" pageWidth="827" pageHeight="1169" math="0" shadow="0">
      <root>
        <mxCell id="0" />
        <mxCell id="1" parent="0" />
        <mxCell id="c3yYRgItxj0xwHfutBmN-1" value="客户资源库功能相关" style="text;html=1;align=center;verticalAlign=middle;resizable=0;points=[];autosize=1;strokeColor=none;fillColor=none;fontSize=20;" vertex="1" parent="1">
          <mxGeometry x="-1280" y="-480" width="200" height="30" as="geometry" />
        </mxCell>
        <mxCell id="c3yYRgItxj0xwHfutBmN-2" value="WF-PC" style="shape=umlLifeline;perimeter=lifelinePerimeter;whiteSpace=wrap;html=1;container=1;collapsible=0;recursiveResize=0;outlineConnect=0;rounded=0;fontFamily=Helvetica;fontSize=16;fontColor=default;strokeColor=default;fillColor=default;" vertex="1" parent="1">
          <mxGeometry x="-1280" y="-440" width="120" height="400" as="geometry" />
        </mxCell>
        <mxCell id="c3yYRgItxj0xwHfutBmN-3" value="" style="html=1;points=[];perimeter=orthogonalPerimeter;rounded=1;fontFamily=Helvetica;fontSize=19;fontColor=default;strokeColor=default;fillColor=default;" vertex="1" parent="c3yYRgItxj0xwHfutBmN-2">
          <mxGeometry x="55" y="90" width="10" height="40" as="geometry" />
        </mxCell>
        <mxCell id="c3yYRgItxj0xwHfutBmN-4" value="user" style="html=1;verticalAlign=bottom;startArrow=oval;endArrow=block;startSize=8;rounded=0;fontFamily=Helvetica;fontSize=19;fontColor=default;" edge="1" parent="c3yYRgItxj0xwHfutBmN-2" target="c3yYRgItxj0xwHfutBmN-3">
          <mxGeometry x="0.1429" relative="1" as="geometry">
            <mxPoint x="10" y="90" as="sourcePoint" />
            <mxPoint as="offset" />
          </mxGeometry>
        </mxCell>
        <mxCell id="c3yYRgItxj0xwHfutBmN-5" value="SCF-CAPI" style="shape=umlLifeline;perimeter=lifelinePerimeter;whiteSpace=wrap;html=1;container=1;collapsible=0;recursiveResize=0;outlineConnect=0;rounded=0;fontFamily=Helvetica;fontSize=16;fontColor=default;strokeColor=default;fillColor=default;" vertex="1" parent="1">
          <mxGeometry x="-1120" y="-440" width="120" height="400" as="geometry" />
        </mxCell>
        <mxCell id="c3yYRgItxj0xwHfutBmN-6" value="" style="html=1;points=[];perimeter=orthogonalPerimeter;rounded=1;fontFamily=Helvetica;fontSize=19;fontColor=default;strokeColor=default;fillColor=default;" vertex="1" parent="c3yYRgItxj0xwHfutBmN-5">
          <mxGeometry x="55" y="90" width="10" height="40" as="geometry" />
        </mxCell>
        <mxCell id="c3yYRgItxj0xwHfutBmN-9" value="SCF-CDAO" style="shape=umlLifeline;perimeter=lifelinePerimeter;whiteSpace=wrap;html=1;container=1;collapsible=0;recursiveResize=0;outlineConnect=0;rounded=0;fontFamily=Helvetica;fontSize=16;fontColor=default;strokeColor=default;fillColor=default;" vertex="1" parent="1">
          <mxGeometry x="-960" y="-440" width="120" height="400" as="geometry" />
        </mxCell>
        <mxCell id="c3yYRgItxj0xwHfutBmN-10" value="" style="html=1;points=[];perimeter=orthogonalPerimeter;rounded=1;fontFamily=Helvetica;fontSize=19;fontColor=default;strokeColor=default;fillColor=default;" vertex="1" parent="c3yYRgItxj0xwHfutBmN-9">
          <mxGeometry x="55" y="90" width="10" height="40" as="geometry" />
        </mxCell>
        <mxCell id="c3yYRgItxj0xwHfutBmN-17" value="" style="html=1;points=[];perimeter=orthogonalPerimeter;rounded=1;fontFamily=Helvetica;fontSize=19;fontColor=default;strokeColor=default;fillColor=default;" vertex="1" parent="c3yYRgItxj0xwHfutBmN-9">
          <mxGeometry x="-265" y="160" width="10" height="40" as="geometry" />
        </mxCell>
        <mxCell id="c3yYRgItxj0xwHfutBmN-18" value="user" style="html=1;verticalAlign=bottom;startArrow=oval;endArrow=block;startSize=8;rounded=0;fontFamily=Helvetica;fontSize=19;fontColor=default;" edge="1" parent="c3yYRgItxj0xwHfutBmN-9" target="c3yYRgItxj0xwHfutBmN-17">
          <mxGeometry x="0.1429" relative="1" as="geometry">
            <mxPoint x="-310" y="160" as="sourcePoint" />
            <mxPoint as="offset" />
          </mxGeometry>
        </mxCell>
        <mxCell id="c3yYRgItxj0xwHfutBmN-19" value="" style="html=1;points=[];perimeter=orthogonalPerimeter;rounded=1;fontFamily=Helvetica;fontSize=19;fontColor=default;strokeColor=default;fillColor=default;" vertex="1" parent="c3yYRgItxj0xwHfutBmN-9">
          <mxGeometry x="-105" y="160" width="10" height="40" as="geometry" />
        </mxCell>
        <mxCell id="c3yYRgItxj0xwHfutBmN-20" value="" style="html=1;points=[];perimeter=orthogonalPerimeter;rounded=1;fontFamily=Helvetica;fontSize=19;fontColor=default;strokeColor=default;fillColor=default;" vertex="1" parent="c3yYRgItxj0xwHfutBmN-9">
          <mxGeometry x="55" y="160" width="10" height="40" as="geometry" />
        </mxCell>
        <mxCell id="c3yYRgItxj0xwHfutBmN-21" style="edgeStyle=orthogonalEdgeStyle;rounded=0;orthogonalLoop=1;jettySize=auto;html=1;entryX=0;entryY=0.15;entryDx=0;entryDy=0;entryPerimeter=0;fontSize=20;" edge="1" parent="c3yYRgItxj0xwHfutBmN-9" source="c3yYRgItxj0xwHfutBmN-17" target="c3yYRgItxj0xwHfutBmN-19">
          <mxGeometry relative="1" as="geometry">
            <Array as="points">
              <mxPoint x="-220" y="166" />
              <mxPoint x="-220" y="166" />
            </Array>
          </mxGeometry>
        </mxCell>
        <mxCell id="c3yYRgItxj0xwHfutBmN-22" style="edgeStyle=orthogonalEdgeStyle;rounded=0;orthogonalLoop=1;jettySize=auto;html=1;entryX=0;entryY=0.2;entryDx=0;entryDy=0;entryPerimeter=0;fontSize=20;" edge="1" parent="c3yYRgItxj0xwHfutBmN-9" source="c3yYRgItxj0xwHfutBmN-19" target="c3yYRgItxj0xwHfutBmN-20">
          <mxGeometry relative="1" as="geometry">
            <Array as="points">
              <mxPoint x="-60" y="168" />
              <mxPoint x="-60" y="168" />
            </Array>
          </mxGeometry>
        </mxCell>
        <mxCell id="c3yYRgItxj0xwHfutBmN-23" style="edgeStyle=orthogonalEdgeStyle;rounded=0;orthogonalLoop=1;jettySize=auto;html=1;entryX=0.9;entryY=0.825;entryDx=0;entryDy=0;entryPerimeter=0;fontSize=20;" edge="1" parent="c3yYRgItxj0xwHfutBmN-9" source="c3yYRgItxj0xwHfutBmN-20" target="c3yYRgItxj0xwHfutBmN-19">
          <mxGeometry relative="1" as="geometry">
            <Array as="points">
              <mxPoint x="20" y="193" />
              <mxPoint x="20" y="193" />
            </Array>
          </mxGeometry>
        </mxCell>
        <mxCell id="c3yYRgItxj0xwHfutBmN-24" style="edgeStyle=orthogonalEdgeStyle;rounded=0;orthogonalLoop=1;jettySize=auto;html=1;entryX=0.9;entryY=0.875;entryDx=0;entryDy=0;entryPerimeter=0;fontSize=20;" edge="1" parent="c3yYRgItxj0xwHfutBmN-9" source="c3yYRgItxj0xwHfutBmN-19" target="c3yYRgItxj0xwHfutBmN-17">
          <mxGeometry relative="1" as="geometry">
            <Array as="points">
              <mxPoint x="-140" y="195" />
              <mxPoint x="-140" y="195" />
            </Array>
          </mxGeometry>
        </mxCell>
        <mxCell id="c3yYRgItxj0xwHfutBmN-25" value="" style="html=1;points=[];perimeter=orthogonalPerimeter;rounded=1;fontFamily=Helvetica;fontSize=19;fontColor=default;strokeColor=default;fillColor=default;" vertex="1" parent="c3yYRgItxj0xwHfutBmN-9">
          <mxGeometry x="-265" y="230" width="10" height="40" as="geometry" />
        </mxCell>
        <mxCell id="c3yYRgItxj0xwHfutBmN-26" value="user" style="html=1;verticalAlign=bottom;startArrow=oval;endArrow=block;startSize=8;rounded=0;fontFamily=Helvetica;fontSize=19;fontColor=default;" edge="1" parent="c3yYRgItxj0xwHfutBmN-9" target="c3yYRgItxj0xwHfutBmN-25">
          <mxGeometry x="0.1429" relative="1" as="geometry">
            <mxPoint x="-310" y="230" as="sourcePoint" />
            <mxPoint as="offset" />
          </mxGeometry>
        </mxCell>
        <mxCell id="c3yYRgItxj0xwHfutBmN-27" value="" style="html=1;points=[];perimeter=orthogonalPerimeter;rounded=1;fontFamily=Helvetica;fontSize=19;fontColor=default;strokeColor=default;fillColor=default;" vertex="1" parent="c3yYRgItxj0xwHfutBmN-9">
          <mxGeometry x="-105" y="230" width="10" height="40" as="geometry" />
        </mxCell>
        <mxCell id="c3yYRgItxj0xwHfutBmN-28" value="" style="html=1;points=[];perimeter=orthogonalPerimeter;rounded=1;fontFamily=Helvetica;fontSize=19;fontColor=default;strokeColor=default;fillColor=default;" vertex="1" parent="c3yYRgItxj0xwHfutBmN-9">
          <mxGeometry x="55" y="230" width="10" height="40" as="geometry" />
        </mxCell>
        <mxCell id="c3yYRgItxj0xwHfutBmN-29" style="edgeStyle=orthogonalEdgeStyle;rounded=0;orthogonalLoop=1;jettySize=auto;html=1;entryX=0;entryY=0.15;entryDx=0;entryDy=0;entryPerimeter=0;fontSize=20;" edge="1" parent="c3yYRgItxj0xwHfutBmN-9" source="c3yYRgItxj0xwHfutBmN-25" target="c3yYRgItxj0xwHfutBmN-27">
          <mxGeometry relative="1" as="geometry">
            <Array as="points">
              <mxPoint x="-220" y="236" />
              <mxPoint x="-220" y="236" />
            </Array>
          </mxGeometry>
        </mxCell>
        <mxCell id="c3yYRgItxj0xwHfutBmN-30" style="edgeStyle=orthogonalEdgeStyle;rounded=0;orthogonalLoop=1;jettySize=auto;html=1;entryX=0;entryY=0.2;entryDx=0;entryDy=0;entryPerimeter=0;fontSize=20;" edge="1" parent="c3yYRgItxj0xwHfutBmN-9" source="c3yYRgItxj0xwHfutBmN-27" target="c3yYRgItxj0xwHfutBmN-28">
          <mxGeometry relative="1" as="geometry">
            <Array as="points">
              <mxPoint x="-60" y="238" />
              <mxPoint x="-60" y="238" />
            </Array>
          </mxGeometry>
        </mxCell>
        <mxCell id="c3yYRgItxj0xwHfutBmN-31" style="edgeStyle=orthogonalEdgeStyle;rounded=0;orthogonalLoop=1;jettySize=auto;html=1;entryX=0.9;entryY=0.825;entryDx=0;entryDy=0;entryPerimeter=0;fontSize=20;" edge="1" parent="c3yYRgItxj0xwHfutBmN-9" source="c3yYRgItxj0xwHfutBmN-28" target="c3yYRgItxj0xwHfutBmN-27">
          <mxGeometry relative="1" as="geometry">
            <Array as="points">
              <mxPoint x="20" y="263" />
              <mxPoint x="20" y="263" />
            </Array>
          </mxGeometry>
        </mxCell>
        <mxCell id="c3yYRgItxj0xwHfutBmN-32" style="edgeStyle=orthogonalEdgeStyle;rounded=0;orthogonalLoop=1;jettySize=auto;html=1;entryX=0.9;entryY=0.875;entryDx=0;entryDy=0;entryPerimeter=0;fontSize=20;" edge="1" parent="c3yYRgItxj0xwHfutBmN-9" source="c3yYRgItxj0xwHfutBmN-27" target="c3yYRgItxj0xwHfutBmN-25">
          <mxGeometry relative="1" as="geometry">
            <Array as="points">
              <mxPoint x="-140" y="265" />
              <mxPoint x="-140" y="265" />
            </Array>
          </mxGeometry>
        </mxCell>
        <mxCell id="c3yYRgItxj0xwHfutBmN-33" value="" style="html=1;points=[];perimeter=orthogonalPerimeter;rounded=1;fontFamily=Helvetica;fontSize=19;fontColor=default;strokeColor=default;fillColor=default;" vertex="1" parent="c3yYRgItxj0xwHfutBmN-9">
          <mxGeometry x="-265" y="300" width="10" height="40" as="geometry" />
        </mxCell>
        <mxCell id="c3yYRgItxj0xwHfutBmN-34" value="user" style="html=1;verticalAlign=bottom;startArrow=oval;endArrow=block;startSize=8;rounded=0;fontFamily=Helvetica;fontSize=19;fontColor=default;" edge="1" parent="c3yYRgItxj0xwHfutBmN-9" target="c3yYRgItxj0xwHfutBmN-33">
          <mxGeometry x="0.1429" relative="1" as="geometry">
            <mxPoint x="-310" y="300" as="sourcePoint" />
            <mxPoint as="offset" />
          </mxGeometry>
        </mxCell>
        <mxCell id="c3yYRgItxj0xwHfutBmN-35" value="" style="html=1;points=[];perimeter=orthogonalPerimeter;rounded=1;fontFamily=Helvetica;fontSize=19;fontColor=default;strokeColor=default;fillColor=default;" vertex="1" parent="c3yYRgItxj0xwHfutBmN-9">
          <mxGeometry x="-105" y="300" width="10" height="40" as="geometry" />
        </mxCell>
        <mxCell id="c3yYRgItxj0xwHfutBmN-36" value="" style="html=1;points=[];perimeter=orthogonalPerimeter;rounded=1;fontFamily=Helvetica;fontSize=19;fontColor=default;strokeColor=default;fillColor=default;" vertex="1" parent="c3yYRgItxj0xwHfutBmN-9">
          <mxGeometry x="55" y="300" width="10" height="40" as="geometry" />
        </mxCell>
        <mxCell id="c3yYRgItxj0xwHfutBmN-37" style="edgeStyle=orthogonalEdgeStyle;rounded=0;orthogonalLoop=1;jettySize=auto;html=1;entryX=0;entryY=0.15;entryDx=0;entryDy=0;entryPerimeter=0;fontSize=20;" edge="1" parent="c3yYRgItxj0xwHfutBmN-9" source="c3yYRgItxj0xwHfutBmN-33" target="c3yYRgItxj0xwHfutBmN-35">
          <mxGeometry relative="1" as="geometry">
            <Array as="points">
              <mxPoint x="-220" y="306" />
              <mxPoint x="-220" y="306" />
            </Array>
          </mxGeometry>
        </mxCell>
        <mxCell id="c3yYRgItxj0xwHfutBmN-38" style="edgeStyle=orthogonalEdgeStyle;rounded=0;orthogonalLoop=1;jettySize=auto;html=1;entryX=0;entryY=0.2;entryDx=0;entryDy=0;entryPerimeter=0;fontSize=20;" edge="1" parent="c3yYRgItxj0xwHfutBmN-9" source="c3yYRgItxj0xwHfutBmN-35" target="c3yYRgItxj0xwHfutBmN-36">
          <mxGeometry relative="1" as="geometry">
            <Array as="points">
              <mxPoint x="-60" y="308" />
              <mxPoint x="-60" y="308" />
            </Array>
          </mxGeometry>
        </mxCell>
        <mxCell id="c3yYRgItxj0xwHfutBmN-39" style="edgeStyle=orthogonalEdgeStyle;rounded=0;orthogonalLoop=1;jettySize=auto;html=1;entryX=0.9;entryY=0.825;entryDx=0;entryDy=0;entryPerimeter=0;fontSize=20;" edge="1" parent="c3yYRgItxj0xwHfutBmN-9" source="c3yYRgItxj0xwHfutBmN-36" target="c3yYRgItxj0xwHfutBmN-35">
          <mxGeometry relative="1" as="geometry">
            <Array as="points">
              <mxPoint x="20" y="333" />
              <mxPoint x="20" y="333" />
            </Array>
          </mxGeometry>
        </mxCell>
        <mxCell id="c3yYRgItxj0xwHfutBmN-40" style="edgeStyle=orthogonalEdgeStyle;rounded=0;orthogonalLoop=1;jettySize=auto;html=1;entryX=0.9;entryY=0.875;entryDx=0;entryDy=0;entryPerimeter=0;fontSize=20;" edge="1" parent="c3yYRgItxj0xwHfutBmN-9" source="c3yYRgItxj0xwHfutBmN-35" target="c3yYRgItxj0xwHfutBmN-33">
          <mxGeometry relative="1" as="geometry">
            <Array as="points">
              <mxPoint x="-140" y="335" />
              <mxPoint x="-140" y="335" />
            </Array>
          </mxGeometry>
        </mxCell>
        <mxCell id="c3yYRgItxj0xwHfutBmN-42" value="新增调用项目查询接口" style="text;html=1;align=center;verticalAlign=middle;resizable=0;points=[];autosize=1;strokeColor=none;fillColor=none;fontSize=12;" vertex="1" parent="c3yYRgItxj0xwHfutBmN-9">
          <mxGeometry x="-95" y="70" width="140" height="20" as="geometry" />
        </mxCell>
        <mxCell id="c3yYRgItxj0xwHfutBmN-12" style="edgeStyle=orthogonalEdgeStyle;rounded=0;orthogonalLoop=1;jettySize=auto;html=1;entryX=0;entryY=0.15;entryDx=0;entryDy=0;entryPerimeter=0;fontSize=20;" edge="1" parent="1" source="c3yYRgItxj0xwHfutBmN-3" target="c3yYRgItxj0xwHfutBmN-6">
          <mxGeometry relative="1" as="geometry">
            <Array as="points">
              <mxPoint x="-1180" y="-344" />
              <mxPoint x="-1180" y="-344" />
            </Array>
          </mxGeometry>
        </mxCell>
        <mxCell id="c3yYRgItxj0xwHfutBmN-13" style="edgeStyle=orthogonalEdgeStyle;rounded=0;orthogonalLoop=1;jettySize=auto;html=1;entryX=0;entryY=0.2;entryDx=0;entryDy=0;entryPerimeter=0;fontSize=20;" edge="1" parent="1" source="c3yYRgItxj0xwHfutBmN-6" target="c3yYRgItxj0xwHfutBmN-10">
          <mxGeometry relative="1" as="geometry">
            <Array as="points">
              <mxPoint x="-1020" y="-342" />
              <mxPoint x="-1020" y="-342" />
            </Array>
          </mxGeometry>
        </mxCell>
        <mxCell id="c3yYRgItxj0xwHfutBmN-15" style="edgeStyle=orthogonalEdgeStyle;rounded=0;orthogonalLoop=1;jettySize=auto;html=1;entryX=0.9;entryY=0.825;entryDx=0;entryDy=0;entryPerimeter=0;fontSize=20;" edge="1" parent="1" source="c3yYRgItxj0xwHfutBmN-10" target="c3yYRgItxj0xwHfutBmN-6">
          <mxGeometry relative="1" as="geometry">
            <Array as="points">
              <mxPoint x="-940" y="-317" />
              <mxPoint x="-940" y="-317" />
            </Array>
          </mxGeometry>
        </mxCell>
        <mxCell id="c3yYRgItxj0xwHfutBmN-16" style="edgeStyle=orthogonalEdgeStyle;rounded=0;orthogonalLoop=1;jettySize=auto;html=1;entryX=0.9;entryY=0.875;entryDx=0;entryDy=0;entryPerimeter=0;fontSize=20;" edge="1" parent="1" source="c3yYRgItxj0xwHfutBmN-6" target="c3yYRgItxj0xwHfutBmN-3">
          <mxGeometry relative="1" as="geometry">
            <Array as="points">
              <mxPoint x="-1100" y="-315" />
              <mxPoint x="-1100" y="-315" />
            </Array>
          </mxGeometry>
        </mxCell>
        <mxCell id="c3yYRgItxj0xwHfutBmN-41" value="列表接口新增客户&lt;br&gt;项目数据字段返回" style="text;html=1;align=center;verticalAlign=middle;resizable=0;points=[];autosize=1;strokeColor=none;fillColor=none;fontSize=12;" vertex="1" parent="1">
          <mxGeometry x="-1200" y="-380" width="110" height="30" as="geometry" />
        </mxCell>
        <mxCell id="c3yYRgItxj0xwHfutBmN-43" value="认领功能按钮更新&lt;br&gt;客户分配时间" style="text;html=1;align=center;verticalAlign=middle;resizable=0;points=[];autosize=1;strokeColor=none;fillColor=none;fontSize=12;" vertex="1" parent="1">
          <mxGeometry x="-1205" y="-305" width="110" height="30" as="geometry" />
        </mxCell>
        <mxCell id="c3yYRgItxj0xwHfutBmN-44" value="更新客户分配时间" style="text;html=1;align=center;verticalAlign=middle;resizable=0;points=[];autosize=1;strokeColor=none;fillColor=none;fontSize=12;" vertex="1" parent="1">
          <mxGeometry x="-1040" y="-295" width="110" height="20" as="geometry" />
        </mxCell>
        <mxCell id="c3yYRgItxj0xwHfutBmN-45" value="分配功能按钮更新&lt;br&gt;客户分配时间" style="text;html=1;align=center;verticalAlign=middle;resizable=0;points=[];autosize=1;strokeColor=none;fillColor=none;fontSize=12;" vertex="1" parent="1">
          <mxGeometry x="-1190" y="-230" width="110" height="30" as="geometry" />
        </mxCell>
        <mxCell id="c3yYRgItxj0xwHfutBmN-46" value="更新客户分配时间" style="text;html=1;align=center;verticalAlign=middle;resizable=0;points=[];autosize=1;strokeColor=none;fillColor=none;fontSize=12;" vertex="1" parent="1">
          <mxGeometry x="-1040" y="-225" width="110" height="20" as="geometry" />
        </mxCell>
        <mxCell id="c3yYRgItxj0xwHfutBmN-47" value="导入客户按钮新增&lt;br&gt;数据跳过场景" style="text;html=1;align=center;verticalAlign=middle;resizable=0;points=[];autosize=1;strokeColor=none;fillColor=none;fontSize=12;" vertex="1" parent="1">
          <mxGeometry x="-1190" y="-160" width="110" height="30" as="geometry" />
        </mxCell>
        <mxCell id="c3yYRgItxj0xwHfutBmN-48" value="导入客户" style="text;html=1;align=center;verticalAlign=middle;resizable=0;points=[];autosize=1;strokeColor=none;fillColor=none;fontSize=12;" vertex="1" parent="1">
          <mxGeometry x="-1015" y="-150" width="60" height="20" as="geometry" />
        </mxCell>
        <mxCell id="c3yYRgItxj0xwHfutBmN-49" value="售前评估-报价功能相关" style="text;html=1;align=center;verticalAlign=middle;resizable=0;points=[];autosize=1;strokeColor=none;fillColor=none;fontSize=20;" vertex="1" parent="1">
          <mxGeometry x="-1280" y="10" width="220" height="30" as="geometry" />
        </mxCell>
        <mxCell id="c3yYRgItxj0xwHfutBmN-50" value="WF-PC" style="shape=umlLifeline;perimeter=lifelinePerimeter;whiteSpace=wrap;html=1;container=1;collapsible=0;recursiveResize=0;outlineConnect=0;rounded=0;fontFamily=Helvetica;fontSize=16;fontColor=default;strokeColor=default;fillColor=default;" vertex="1" parent="1">
          <mxGeometry x="-1280" y="40" width="120" height="250" as="geometry" />
        </mxCell>
        <mxCell id="c3yYRgItxj0xwHfutBmN-51" value="" style="html=1;points=[];perimeter=orthogonalPerimeter;rounded=1;fontFamily=Helvetica;fontSize=19;fontColor=default;strokeColor=default;fillColor=default;" vertex="1" parent="c3yYRgItxj0xwHfutBmN-50">
          <mxGeometry x="55" y="90" width="10" height="40" as="geometry" />
        </mxCell>
        <mxCell id="c3yYRgItxj0xwHfutBmN-52" value="user" style="html=1;verticalAlign=bottom;startArrow=oval;endArrow=block;startSize=8;rounded=0;fontFamily=Helvetica;fontSize=19;fontColor=default;" edge="1" parent="c3yYRgItxj0xwHfutBmN-50" target="c3yYRgItxj0xwHfutBmN-51">
          <mxGeometry x="0.1429" relative="1" as="geometry">
            <mxPoint x="10" y="90" as="sourcePoint" />
            <mxPoint as="offset" />
          </mxGeometry>
        </mxCell>
        <mxCell id="c3yYRgItxj0xwHfutBmN-53" value="SCF-CAPI" style="shape=umlLifeline;perimeter=lifelinePerimeter;whiteSpace=wrap;html=1;container=1;collapsible=0;recursiveResize=0;outlineConnect=0;rounded=0;fontFamily=Helvetica;fontSize=16;fontColor=default;strokeColor=default;fillColor=default;" vertex="1" parent="1">
          <mxGeometry x="-1120" y="40" width="120" height="240" as="geometry" />
        </mxCell>
        <mxCell id="c3yYRgItxj0xwHfutBmN-54" value="" style="html=1;points=[];perimeter=orthogonalPerimeter;rounded=1;fontFamily=Helvetica;fontSize=19;fontColor=default;strokeColor=default;fillColor=default;" vertex="1" parent="c3yYRgItxj0xwHfutBmN-53">
          <mxGeometry x="55" y="90" width="10" height="40" as="geometry" />
        </mxCell>
        <mxCell id="c3yYRgItxj0xwHfutBmN-57" value="SCF-CDAO" style="shape=umlLifeline;perimeter=lifelinePerimeter;whiteSpace=wrap;html=1;container=1;collapsible=0;recursiveResize=0;outlineConnect=0;rounded=0;fontFamily=Helvetica;fontSize=16;fontColor=default;strokeColor=default;fillColor=default;" vertex="1" parent="1">
          <mxGeometry x="-960" y="40" width="120" height="240" as="geometry" />
        </mxCell>
        <mxCell id="c3yYRgItxj0xwHfutBmN-58" value="" style="html=1;points=[];perimeter=orthogonalPerimeter;rounded=1;fontFamily=Helvetica;fontSize=19;fontColor=default;strokeColor=default;fillColor=default;" vertex="1" parent="c3yYRgItxj0xwHfutBmN-57">
          <mxGeometry x="55" y="90" width="10" height="40" as="geometry" />
        </mxCell>
        <mxCell id="c3yYRgItxj0xwHfutBmN-92" value="" style="html=1;points=[];perimeter=orthogonalPerimeter;rounded=1;fontFamily=Helvetica;fontSize=19;fontColor=default;strokeColor=default;fillColor=default;" vertex="1" parent="c3yYRgItxj0xwHfutBmN-57">
          <mxGeometry x="-265" y="160" width="10" height="40" as="geometry" />
        </mxCell>
        <mxCell id="c3yYRgItxj0xwHfutBmN-93" value="user" style="html=1;verticalAlign=bottom;startArrow=oval;endArrow=block;startSize=8;rounded=0;fontFamily=Helvetica;fontSize=19;fontColor=default;" edge="1" parent="c3yYRgItxj0xwHfutBmN-57" target="c3yYRgItxj0xwHfutBmN-92">
          <mxGeometry x="0.1429" relative="1" as="geometry">
            <mxPoint x="-310" y="160" as="sourcePoint" />
            <mxPoint as="offset" />
          </mxGeometry>
        </mxCell>
        <mxCell id="c3yYRgItxj0xwHfutBmN-94" value="" style="html=1;points=[];perimeter=orthogonalPerimeter;rounded=1;fontFamily=Helvetica;fontSize=19;fontColor=default;strokeColor=default;fillColor=default;" vertex="1" parent="c3yYRgItxj0xwHfutBmN-57">
          <mxGeometry x="-105" y="160" width="10" height="40" as="geometry" />
        </mxCell>
        <mxCell id="c3yYRgItxj0xwHfutBmN-95" value="" style="html=1;points=[];perimeter=orthogonalPerimeter;rounded=1;fontFamily=Helvetica;fontSize=19;fontColor=default;strokeColor=default;fillColor=default;" vertex="1" parent="c3yYRgItxj0xwHfutBmN-57">
          <mxGeometry x="55" y="160" width="10" height="40" as="geometry" />
        </mxCell>
        <mxCell id="c3yYRgItxj0xwHfutBmN-96" style="edgeStyle=orthogonalEdgeStyle;rounded=0;orthogonalLoop=1;jettySize=auto;html=1;entryX=0;entryY=0.15;entryDx=0;entryDy=0;entryPerimeter=0;fontSize=20;" edge="1" parent="c3yYRgItxj0xwHfutBmN-57" source="c3yYRgItxj0xwHfutBmN-92" target="c3yYRgItxj0xwHfutBmN-94">
          <mxGeometry relative="1" as="geometry">
            <Array as="points">
              <mxPoint x="-220" y="166" />
              <mxPoint x="-220" y="166" />
            </Array>
          </mxGeometry>
        </mxCell>
        <mxCell id="c3yYRgItxj0xwHfutBmN-97" style="edgeStyle=orthogonalEdgeStyle;rounded=0;orthogonalLoop=1;jettySize=auto;html=1;entryX=-0.2;entryY=0.175;entryDx=0;entryDy=0;entryPerimeter=0;fontSize=20;" edge="1" parent="c3yYRgItxj0xwHfutBmN-57" source="c3yYRgItxj0xwHfutBmN-94" target="c3yYRgItxj0xwHfutBmN-95">
          <mxGeometry relative="1" as="geometry">
            <Array as="points">
              <mxPoint x="-60" y="167" />
              <mxPoint x="-60" y="167" />
            </Array>
          </mxGeometry>
        </mxCell>
        <mxCell id="c3yYRgItxj0xwHfutBmN-100" style="edgeStyle=orthogonalEdgeStyle;rounded=0;orthogonalLoop=1;jettySize=auto;html=1;entryX=1;entryY=0.775;entryDx=0;entryDy=0;entryPerimeter=0;fontSize=12;" edge="1" parent="c3yYRgItxj0xwHfutBmN-57" source="c3yYRgItxj0xwHfutBmN-95" target="c3yYRgItxj0xwHfutBmN-94">
          <mxGeometry relative="1" as="geometry">
            <Array as="points">
              <mxPoint x="20" y="191" />
              <mxPoint x="20" y="191" />
            </Array>
          </mxGeometry>
        </mxCell>
        <mxCell id="c3yYRgItxj0xwHfutBmN-101" style="edgeStyle=orthogonalEdgeStyle;rounded=0;orthogonalLoop=1;jettySize=auto;html=1;entryX=1;entryY=0.8;entryDx=0;entryDy=0;entryPerimeter=0;fontSize=12;" edge="1" parent="c3yYRgItxj0xwHfutBmN-57" source="c3yYRgItxj0xwHfutBmN-94" target="c3yYRgItxj0xwHfutBmN-92">
          <mxGeometry relative="1" as="geometry">
            <Array as="points">
              <mxPoint x="-140" y="192" />
              <mxPoint x="-140" y="192" />
            </Array>
          </mxGeometry>
        </mxCell>
        <mxCell id="c3yYRgItxj0xwHfutBmN-70" style="edgeStyle=orthogonalEdgeStyle;rounded=0;orthogonalLoop=1;jettySize=auto;html=1;entryX=0;entryY=0.15;entryDx=0;entryDy=0;entryPerimeter=0;fontSize=20;" edge="1" parent="1" source="c3yYRgItxj0xwHfutBmN-51" target="c3yYRgItxj0xwHfutBmN-54">
          <mxGeometry relative="1" as="geometry">
            <Array as="points">
              <mxPoint x="-1180" y="136" />
              <mxPoint x="-1180" y="136" />
            </Array>
          </mxGeometry>
        </mxCell>
        <mxCell id="c3yYRgItxj0xwHfutBmN-71" style="edgeStyle=orthogonalEdgeStyle;rounded=0;orthogonalLoop=1;jettySize=auto;html=1;entryX=-0.2;entryY=0.175;entryDx=0;entryDy=0;entryPerimeter=0;fontSize=20;" edge="1" parent="1" source="c3yYRgItxj0xwHfutBmN-54" target="c3yYRgItxj0xwHfutBmN-58">
          <mxGeometry relative="1" as="geometry">
            <Array as="points">
              <mxPoint x="-1020" y="137" />
              <mxPoint x="-1020" y="137" />
            </Array>
          </mxGeometry>
        </mxCell>
        <mxCell id="c3yYRgItxj0xwHfutBmN-72" value="&lt;span style=&quot;font-size: 12px;&quot;&gt;新增职能组件查询&lt;br style=&quot;font-size: 12px;&quot;&gt;职能接口&lt;/span&gt;" style="text;html=1;align=center;verticalAlign=middle;resizable=0;points=[];autosize=1;strokeColor=none;fillColor=none;fontSize=12;" vertex="1" parent="1">
          <mxGeometry x="-1205" y="100" width="110" height="30" as="geometry" />
        </mxCell>
        <mxCell id="c3yYRgItxj0xwHfutBmN-73" value="查询对应职能" style="text;html=1;align=center;verticalAlign=middle;resizable=0;points=[];autosize=1;strokeColor=none;fillColor=none;fontSize=12;" vertex="1" parent="1">
          <mxGeometry x="-1040" y="110" width="90" height="20" as="geometry" />
        </mxCell>
        <mxCell id="c3yYRgItxj0xwHfutBmN-80" style="edgeStyle=orthogonalEdgeStyle;rounded=0;orthogonalLoop=1;jettySize=auto;html=1;entryX=1;entryY=0.775;entryDx=0;entryDy=0;entryPerimeter=0;fontSize=12;" edge="1" parent="1" source="c3yYRgItxj0xwHfutBmN-58" target="c3yYRgItxj0xwHfutBmN-54">
          <mxGeometry relative="1" as="geometry">
            <Array as="points">
              <mxPoint x="-940" y="161" />
              <mxPoint x="-940" y="161" />
            </Array>
          </mxGeometry>
        </mxCell>
        <mxCell id="c3yYRgItxj0xwHfutBmN-81" style="edgeStyle=orthogonalEdgeStyle;rounded=0;orthogonalLoop=1;jettySize=auto;html=1;entryX=1;entryY=0.8;entryDx=0;entryDy=0;entryPerimeter=0;fontSize=12;" edge="1" parent="1" source="c3yYRgItxj0xwHfutBmN-54" target="c3yYRgItxj0xwHfutBmN-51">
          <mxGeometry relative="1" as="geometry">
            <Array as="points">
              <mxPoint x="-1100" y="162" />
              <mxPoint x="-1100" y="162" />
            </Array>
          </mxGeometry>
        </mxCell>
        <mxCell id="c3yYRgItxj0xwHfutBmN-102" value="新增查客户公司规模和&lt;br&gt;公司行业接口（映射后）" style="text;html=1;align=center;verticalAlign=middle;resizable=0;points=[];autosize=1;strokeColor=none;fillColor=none;fontSize=12;" vertex="1" parent="1">
          <mxGeometry x="-1220" y="175" width="150" height="30" as="geometry" />
        </mxCell>
        <mxCell id="c3yYRgItxj0xwHfutBmN-103" value="查询公司规模和公司行业" style="text;html=1;align=center;verticalAlign=middle;resizable=0;points=[];autosize=1;strokeColor=none;fillColor=none;fontSize=12;" vertex="1" parent="1">
          <mxGeometry x="-1060" y="185" width="150" height="20" as="geometry" />
        </mxCell>
        <mxCell id="c3yYRgItxj0xwHfutBmN-104" value="合同列表-协议功能相关" style="text;html=1;align=center;verticalAlign=middle;resizable=0;points=[];autosize=1;strokeColor=none;fillColor=none;fontSize=20;" vertex="1" parent="1">
          <mxGeometry x="-1280" y="330" width="220" height="30" as="geometry" />
        </mxCell>
        <mxCell id="c3yYRgItxj0xwHfutBmN-105" value="站内信-功能相关" style="text;html=1;align=center;verticalAlign=middle;resizable=0;points=[];autosize=1;strokeColor=none;fillColor=none;fontSize=20;" vertex="1" parent="1">
          <mxGeometry x="-1280" y="530" width="160" height="30" as="geometry" />
        </mxCell>
        <mxCell id="c3yYRgItxj0xwHfutBmN-107" value="WF-PC" style="shape=umlLifeline;perimeter=lifelinePerimeter;whiteSpace=wrap;html=1;container=1;collapsible=0;recursiveResize=0;outlineConnect=0;rounded=0;fontFamily=Helvetica;fontSize=16;fontColor=default;strokeColor=default;fillColor=default;" vertex="1" parent="1">
          <mxGeometry x="-1280" y="560" width="120" height="400" as="geometry" />
        </mxCell>
        <mxCell id="c3yYRgItxj0xwHfutBmN-108" value="" style="html=1;points=[];perimeter=orthogonalPerimeter;rounded=1;fontFamily=Helvetica;fontSize=19;fontColor=default;strokeColor=default;fillColor=default;" vertex="1" parent="c3yYRgItxj0xwHfutBmN-107">
          <mxGeometry x="55" y="90" width="10" height="40" as="geometry" />
        </mxCell>
        <mxCell id="c3yYRgItxj0xwHfutBmN-109" value="user" style="html=1;verticalAlign=bottom;startArrow=oval;endArrow=block;startSize=8;rounded=0;fontFamily=Helvetica;fontSize=19;fontColor=default;" edge="1" parent="c3yYRgItxj0xwHfutBmN-107" target="c3yYRgItxj0xwHfutBmN-108">
          <mxGeometry x="0.1429" relative="1" as="geometry">
            <mxPoint x="10" y="90" as="sourcePoint" />
            <mxPoint as="offset" />
          </mxGeometry>
        </mxCell>
        <mxCell id="c3yYRgItxj0xwHfutBmN-110" value="SCF-CAPI" style="shape=umlLifeline;perimeter=lifelinePerimeter;whiteSpace=wrap;html=1;container=1;collapsible=0;recursiveResize=0;outlineConnect=0;rounded=0;fontFamily=Helvetica;fontSize=16;fontColor=default;strokeColor=default;fillColor=default;" vertex="1" parent="1">
          <mxGeometry x="-1120" y="560" width="120" height="400" as="geometry" />
        </mxCell>
        <mxCell id="c3yYRgItxj0xwHfutBmN-111" value="" style="html=1;points=[];perimeter=orthogonalPerimeter;rounded=1;fontFamily=Helvetica;fontSize=19;fontColor=default;strokeColor=default;fillColor=default;" vertex="1" parent="c3yYRgItxj0xwHfutBmN-110">
          <mxGeometry x="55" y="90" width="10" height="40" as="geometry" />
        </mxCell>
        <mxCell id="c3yYRgItxj0xwHfutBmN-112" value="SCF-CDAO" style="shape=umlLifeline;perimeter=lifelinePerimeter;whiteSpace=wrap;html=1;container=1;collapsible=0;recursiveResize=0;outlineConnect=0;rounded=0;fontFamily=Helvetica;fontSize=16;fontColor=default;strokeColor=default;fillColor=default;" vertex="1" parent="1">
          <mxGeometry x="-960" y="560" width="120" height="400" as="geometry" />
        </mxCell>
        <mxCell id="c3yYRgItxj0xwHfutBmN-113" value="" style="html=1;points=[];perimeter=orthogonalPerimeter;rounded=1;fontFamily=Helvetica;fontSize=19;fontColor=default;strokeColor=default;fillColor=default;" vertex="1" parent="c3yYRgItxj0xwHfutBmN-112">
          <mxGeometry x="55" y="90" width="10" height="40" as="geometry" />
        </mxCell>
        <mxCell id="c3yYRgItxj0xwHfutBmN-134" value="" style="html=1;points=[];perimeter=orthogonalPerimeter;rounded=1;fontFamily=Helvetica;fontSize=19;fontColor=default;strokeColor=default;fillColor=default;" vertex="1" parent="c3yYRgItxj0xwHfutBmN-112">
          <mxGeometry x="-265" y="320" width="10" height="40" as="geometry" />
        </mxCell>
        <mxCell id="c3yYRgItxj0xwHfutBmN-135" value="user" style="html=1;verticalAlign=bottom;startArrow=oval;endArrow=block;startSize=8;rounded=0;fontFamily=Helvetica;fontSize=19;fontColor=default;" edge="1" parent="c3yYRgItxj0xwHfutBmN-112" target="c3yYRgItxj0xwHfutBmN-134">
          <mxGeometry x="0.1429" relative="1" as="geometry">
            <mxPoint x="-310" y="320" as="sourcePoint" />
            <mxPoint as="offset" />
          </mxGeometry>
        </mxCell>
        <mxCell id="c3yYRgItxj0xwHfutBmN-136" value="" style="html=1;points=[];perimeter=orthogonalPerimeter;rounded=1;fontFamily=Helvetica;fontSize=19;fontColor=default;strokeColor=default;fillColor=default;" vertex="1" parent="c3yYRgItxj0xwHfutBmN-112">
          <mxGeometry x="-105" y="320" width="10" height="40" as="geometry" />
        </mxCell>
        <mxCell id="c3yYRgItxj0xwHfutBmN-137" value="" style="html=1;points=[];perimeter=orthogonalPerimeter;rounded=1;fontFamily=Helvetica;fontSize=19;fontColor=default;strokeColor=default;fillColor=default;" vertex="1" parent="c3yYRgItxj0xwHfutBmN-112">
          <mxGeometry x="55" y="320" width="10" height="40" as="geometry" />
        </mxCell>
        <mxCell id="c3yYRgItxj0xwHfutBmN-138" style="edgeStyle=orthogonalEdgeStyle;rounded=0;orthogonalLoop=1;jettySize=auto;html=1;entryX=0;entryY=0.15;entryDx=0;entryDy=0;entryPerimeter=0;fontSize=12;" edge="1" parent="c3yYRgItxj0xwHfutBmN-112" source="c3yYRgItxj0xwHfutBmN-134" target="c3yYRgItxj0xwHfutBmN-136">
          <mxGeometry relative="1" as="geometry">
            <Array as="points">
              <mxPoint x="-220" y="326" />
              <mxPoint x="-220" y="326" />
            </Array>
          </mxGeometry>
        </mxCell>
        <mxCell id="c3yYRgItxj0xwHfutBmN-139" style="edgeStyle=orthogonalEdgeStyle;rounded=0;orthogonalLoop=1;jettySize=auto;html=1;entryX=0.1;entryY=0.175;entryDx=0;entryDy=0;entryPerimeter=0;fontSize=12;" edge="1" parent="c3yYRgItxj0xwHfutBmN-112" source="c3yYRgItxj0xwHfutBmN-136" target="c3yYRgItxj0xwHfutBmN-137">
          <mxGeometry relative="1" as="geometry">
            <Array as="points">
              <mxPoint x="-60" y="327" />
              <mxPoint x="-60" y="327" />
            </Array>
          </mxGeometry>
        </mxCell>
        <mxCell id="c3yYRgItxj0xwHfutBmN-140" style="edgeStyle=orthogonalEdgeStyle;rounded=0;orthogonalLoop=1;jettySize=auto;html=1;entryX=1.2;entryY=0.825;entryDx=0;entryDy=0;entryPerimeter=0;fontSize=12;" edge="1" parent="c3yYRgItxj0xwHfutBmN-112" source="c3yYRgItxj0xwHfutBmN-137" target="c3yYRgItxj0xwHfutBmN-136">
          <mxGeometry relative="1" as="geometry">
            <Array as="points">
              <mxPoint x="20" y="353" />
              <mxPoint x="20" y="353" />
            </Array>
          </mxGeometry>
        </mxCell>
        <mxCell id="c3yYRgItxj0xwHfutBmN-141" style="edgeStyle=orthogonalEdgeStyle;rounded=0;orthogonalLoop=1;jettySize=auto;html=1;entryX=0.9;entryY=0.875;entryDx=0;entryDy=0;entryPerimeter=0;fontSize=12;" edge="1" parent="c3yYRgItxj0xwHfutBmN-112" source="c3yYRgItxj0xwHfutBmN-136" target="c3yYRgItxj0xwHfutBmN-134">
          <mxGeometry relative="1" as="geometry">
            <Array as="points">
              <mxPoint x="-140" y="355" />
              <mxPoint x="-140" y="355" />
            </Array>
          </mxGeometry>
        </mxCell>
        <mxCell id="c3yYRgItxj0xwHfutBmN-114" style="edgeStyle=orthogonalEdgeStyle;rounded=0;orthogonalLoop=1;jettySize=auto;html=1;entryX=0;entryY=0.15;entryDx=0;entryDy=0;entryPerimeter=0;fontSize=12;" edge="1" parent="1" source="c3yYRgItxj0xwHfutBmN-108" target="c3yYRgItxj0xwHfutBmN-111">
          <mxGeometry relative="1" as="geometry">
            <Array as="points">
              <mxPoint x="-1180" y="656" />
              <mxPoint x="-1180" y="656" />
            </Array>
          </mxGeometry>
        </mxCell>
        <mxCell id="c3yYRgItxj0xwHfutBmN-115" style="edgeStyle=orthogonalEdgeStyle;rounded=0;orthogonalLoop=1;jettySize=auto;html=1;entryX=0.1;entryY=0.175;entryDx=0;entryDy=0;entryPerimeter=0;fontSize=12;" edge="1" parent="1" source="c3yYRgItxj0xwHfutBmN-111" target="c3yYRgItxj0xwHfutBmN-113">
          <mxGeometry relative="1" as="geometry">
            <Array as="points">
              <mxPoint x="-1020" y="657" />
              <mxPoint x="-1020" y="657" />
            </Array>
          </mxGeometry>
        </mxCell>
        <mxCell id="c3yYRgItxj0xwHfutBmN-116" style="edgeStyle=orthogonalEdgeStyle;rounded=0;orthogonalLoop=1;jettySize=auto;html=1;entryX=1.2;entryY=0.825;entryDx=0;entryDy=0;entryPerimeter=0;fontSize=12;" edge="1" parent="1" source="c3yYRgItxj0xwHfutBmN-113" target="c3yYRgItxj0xwHfutBmN-111">
          <mxGeometry relative="1" as="geometry">
            <Array as="points">
              <mxPoint x="-940" y="683" />
              <mxPoint x="-940" y="683" />
            </Array>
          </mxGeometry>
        </mxCell>
        <mxCell id="c3yYRgItxj0xwHfutBmN-117" style="edgeStyle=orthogonalEdgeStyle;rounded=0;orthogonalLoop=1;jettySize=auto;html=1;entryX=0.9;entryY=0.875;entryDx=0;entryDy=0;entryPerimeter=0;fontSize=12;" edge="1" parent="1" source="c3yYRgItxj0xwHfutBmN-111" target="c3yYRgItxj0xwHfutBmN-108">
          <mxGeometry relative="1" as="geometry">
            <Array as="points">
              <mxPoint x="-1100" y="685" />
              <mxPoint x="-1100" y="685" />
            </Array>
          </mxGeometry>
        </mxCell>
        <mxCell id="c3yYRgItxj0xwHfutBmN-118" value="" style="html=1;points=[];perimeter=orthogonalPerimeter;rounded=1;fontFamily=Helvetica;fontSize=19;fontColor=default;strokeColor=default;fillColor=default;" vertex="1" parent="1">
          <mxGeometry x="-1225" y="730" width="10" height="40" as="geometry" />
        </mxCell>
        <mxCell id="c3yYRgItxj0xwHfutBmN-119" value="user" style="html=1;verticalAlign=bottom;startArrow=oval;endArrow=block;startSize=8;rounded=0;fontFamily=Helvetica;fontSize=19;fontColor=default;" edge="1" parent="1" target="c3yYRgItxj0xwHfutBmN-118">
          <mxGeometry x="0.1429" relative="1" as="geometry">
            <mxPoint x="-1270" y="730" as="sourcePoint" />
            <mxPoint as="offset" />
          </mxGeometry>
        </mxCell>
        <mxCell id="c3yYRgItxj0xwHfutBmN-120" value="" style="html=1;points=[];perimeter=orthogonalPerimeter;rounded=1;fontFamily=Helvetica;fontSize=19;fontColor=default;strokeColor=default;fillColor=default;" vertex="1" parent="1">
          <mxGeometry x="-1065" y="730" width="10" height="40" as="geometry" />
        </mxCell>
        <mxCell id="c3yYRgItxj0xwHfutBmN-121" value="" style="html=1;points=[];perimeter=orthogonalPerimeter;rounded=1;fontFamily=Helvetica;fontSize=19;fontColor=default;strokeColor=default;fillColor=default;" vertex="1" parent="1">
          <mxGeometry x="-905" y="730" width="10" height="40" as="geometry" />
        </mxCell>
        <mxCell id="c3yYRgItxj0xwHfutBmN-122" style="edgeStyle=orthogonalEdgeStyle;rounded=0;orthogonalLoop=1;jettySize=auto;html=1;entryX=0;entryY=0.15;entryDx=0;entryDy=0;entryPerimeter=0;fontSize=12;" edge="1" parent="1" source="c3yYRgItxj0xwHfutBmN-118" target="c3yYRgItxj0xwHfutBmN-120">
          <mxGeometry relative="1" as="geometry">
            <Array as="points">
              <mxPoint x="-1180" y="736" />
              <mxPoint x="-1180" y="736" />
            </Array>
          </mxGeometry>
        </mxCell>
        <mxCell id="c3yYRgItxj0xwHfutBmN-123" style="edgeStyle=orthogonalEdgeStyle;rounded=0;orthogonalLoop=1;jettySize=auto;html=1;entryX=0.1;entryY=0.175;entryDx=0;entryDy=0;entryPerimeter=0;fontSize=12;" edge="1" parent="1" source="c3yYRgItxj0xwHfutBmN-120" target="c3yYRgItxj0xwHfutBmN-121">
          <mxGeometry relative="1" as="geometry">
            <Array as="points">
              <mxPoint x="-1020" y="737" />
              <mxPoint x="-1020" y="737" />
            </Array>
          </mxGeometry>
        </mxCell>
        <mxCell id="c3yYRgItxj0xwHfutBmN-124" style="edgeStyle=orthogonalEdgeStyle;rounded=0;orthogonalLoop=1;jettySize=auto;html=1;entryX=1.2;entryY=0.825;entryDx=0;entryDy=0;entryPerimeter=0;fontSize=12;" edge="1" parent="1" source="c3yYRgItxj0xwHfutBmN-121" target="c3yYRgItxj0xwHfutBmN-120">
          <mxGeometry relative="1" as="geometry">
            <Array as="points">
              <mxPoint x="-940" y="763" />
              <mxPoint x="-940" y="763" />
            </Array>
          </mxGeometry>
        </mxCell>
        <mxCell id="c3yYRgItxj0xwHfutBmN-125" style="edgeStyle=orthogonalEdgeStyle;rounded=0;orthogonalLoop=1;jettySize=auto;html=1;entryX=0.9;entryY=0.875;entryDx=0;entryDy=0;entryPerimeter=0;fontSize=12;" edge="1" parent="1" source="c3yYRgItxj0xwHfutBmN-120" target="c3yYRgItxj0xwHfutBmN-118">
          <mxGeometry relative="1" as="geometry">
            <Array as="points">
              <mxPoint x="-1100" y="765" />
              <mxPoint x="-1100" y="765" />
            </Array>
          </mxGeometry>
        </mxCell>
        <mxCell id="c3yYRgItxj0xwHfutBmN-126" value="" style="html=1;points=[];perimeter=orthogonalPerimeter;rounded=1;fontFamily=Helvetica;fontSize=19;fontColor=default;strokeColor=default;fillColor=default;" vertex="1" parent="1">
          <mxGeometry x="-1225" y="810" width="10" height="40" as="geometry" />
        </mxCell>
        <mxCell id="c3yYRgItxj0xwHfutBmN-127" value="user" style="html=1;verticalAlign=bottom;startArrow=oval;endArrow=block;startSize=8;rounded=0;fontFamily=Helvetica;fontSize=19;fontColor=default;" edge="1" parent="1" target="c3yYRgItxj0xwHfutBmN-126">
          <mxGeometry x="0.1429" relative="1" as="geometry">
            <mxPoint x="-1270" y="810" as="sourcePoint" />
            <mxPoint as="offset" />
          </mxGeometry>
        </mxCell>
        <mxCell id="c3yYRgItxj0xwHfutBmN-128" value="" style="html=1;points=[];perimeter=orthogonalPerimeter;rounded=1;fontFamily=Helvetica;fontSize=19;fontColor=default;strokeColor=default;fillColor=default;" vertex="1" parent="1">
          <mxGeometry x="-1065" y="810" width="10" height="40" as="geometry" />
        </mxCell>
        <mxCell id="c3yYRgItxj0xwHfutBmN-129" value="" style="html=1;points=[];perimeter=orthogonalPerimeter;rounded=1;fontFamily=Helvetica;fontSize=19;fontColor=default;strokeColor=default;fillColor=default;" vertex="1" parent="1">
          <mxGeometry x="-905" y="810" width="10" height="40" as="geometry" />
        </mxCell>
        <mxCell id="c3yYRgItxj0xwHfutBmN-130" style="edgeStyle=orthogonalEdgeStyle;rounded=0;orthogonalLoop=1;jettySize=auto;html=1;entryX=0;entryY=0.15;entryDx=0;entryDy=0;entryPerimeter=0;fontSize=12;" edge="1" parent="1" source="c3yYRgItxj0xwHfutBmN-126" target="c3yYRgItxj0xwHfutBmN-128">
          <mxGeometry relative="1" as="geometry">
            <Array as="points">
              <mxPoint x="-1180" y="816" />
              <mxPoint x="-1180" y="816" />
            </Array>
          </mxGeometry>
        </mxCell>
        <mxCell id="c3yYRgItxj0xwHfutBmN-131" style="edgeStyle=orthogonalEdgeStyle;rounded=0;orthogonalLoop=1;jettySize=auto;html=1;entryX=0.1;entryY=0.175;entryDx=0;entryDy=0;entryPerimeter=0;fontSize=12;" edge="1" parent="1" source="c3yYRgItxj0xwHfutBmN-128" target="c3yYRgItxj0xwHfutBmN-129">
          <mxGeometry relative="1" as="geometry">
            <Array as="points">
              <mxPoint x="-1020" y="817" />
              <mxPoint x="-1020" y="817" />
            </Array>
          </mxGeometry>
        </mxCell>
        <mxCell id="c3yYRgItxj0xwHfutBmN-132" style="edgeStyle=orthogonalEdgeStyle;rounded=0;orthogonalLoop=1;jettySize=auto;html=1;entryX=1.2;entryY=0.825;entryDx=0;entryDy=0;entryPerimeter=0;fontSize=12;" edge="1" parent="1" source="c3yYRgItxj0xwHfutBmN-129" target="c3yYRgItxj0xwHfutBmN-128">
          <mxGeometry relative="1" as="geometry">
            <Array as="points">
              <mxPoint x="-940" y="843" />
              <mxPoint x="-940" y="843" />
            </Array>
          </mxGeometry>
        </mxCell>
        <mxCell id="c3yYRgItxj0xwHfutBmN-133" style="edgeStyle=orthogonalEdgeStyle;rounded=0;orthogonalLoop=1;jettySize=auto;html=1;entryX=0.9;entryY=0.875;entryDx=0;entryDy=0;entryPerimeter=0;fontSize=12;" edge="1" parent="1" source="c3yYRgItxj0xwHfutBmN-128" target="c3yYRgItxj0xwHfutBmN-126">
          <mxGeometry relative="1" as="geometry">
            <Array as="points">
              <mxPoint x="-1100" y="845" />
              <mxPoint x="-1100" y="845" />
            </Array>
          </mxGeometry>
        </mxCell>
        <mxCell id="c3yYRgItxj0xwHfutBmN-142" value="新增报价审批结果&lt;br&gt;站内信通知" style="text;html=1;align=center;verticalAlign=middle;resizable=0;points=[];autosize=1;strokeColor=none;fillColor=none;fontSize=12;" vertex="1" parent="1">
          <mxGeometry x="-1200" y="620" width="110" height="30" as="geometry" />
        </mxCell>
        <mxCell id="c3yYRgItxj0xwHfutBmN-143" value="审批结果落站内信库" style="text;html=1;align=center;verticalAlign=middle;resizable=0;points=[];autosize=1;strokeColor=none;fillColor=none;fontSize=12;" vertex="1" parent="1">
          <mxGeometry x="-1045" y="630" width="120" height="20" as="geometry" />
        </mxCell>
        <mxCell id="c3yYRgItxj0xwHfutBmN-144" value="审批结果落站内信库" style="text;html=1;align=center;verticalAlign=middle;resizable=0;points=[];autosize=1;strokeColor=none;fillColor=none;fontSize=12;" vertex="1" parent="1">
          <mxGeometry x="-1045" y="710" width="120" height="20" as="geometry" />
        </mxCell>
        <mxCell id="c3yYRgItxj0xwHfutBmN-145" value="审批结果落站内信库" style="text;html=1;align=center;verticalAlign=middle;resizable=0;points=[];autosize=1;strokeColor=none;fillColor=none;fontSize=12;" vertex="1" parent="1">
          <mxGeometry x="-1040" y="790" width="120" height="20" as="geometry" />
        </mxCell>
        <mxCell id="c3yYRgItxj0xwHfutBmN-146" value="审批结果落站内信库" style="text;html=1;align=center;verticalAlign=middle;resizable=0;points=[];autosize=1;strokeColor=none;fillColor=none;fontSize=12;" vertex="1" parent="1">
          <mxGeometry x="-1040" y="860" width="120" height="20" as="geometry" />
        </mxCell>
        <mxCell id="c3yYRgItxj0xwHfutBmN-147" value="新增订单审批结果&lt;br&gt;站内信通知" style="text;html=1;align=center;verticalAlign=middle;resizable=0;points=[];autosize=1;strokeColor=none;fillColor=none;fontSize=12;" vertex="1" parent="1">
          <mxGeometry x="-1200" y="700" width="110" height="30" as="geometry" />
        </mxCell>
        <mxCell id="c3yYRgItxj0xwHfutBmN-148" value="新增冲突审批结果&lt;br&gt;站内信通知" style="text;html=1;align=center;verticalAlign=middle;resizable=0;points=[];autosize=1;strokeColor=none;fillColor=none;fontSize=12;" vertex="1" parent="1">
          <mxGeometry x="-1200" y="780" width="110" height="30" as="geometry" />
        </mxCell>
        <mxCell id="c3yYRgItxj0xwHfutBmN-149" value="新增项目启动结果&lt;br&gt;站内信通知" style="text;html=1;align=center;verticalAlign=middle;resizable=0;points=[];autosize=1;strokeColor=none;fillColor=none;fontSize=12;" vertex="1" parent="1">
          <mxGeometry x="-1200" y="850" width="110" height="30" as="geometry" />
        </mxCell>
        <mxCell id="c3yYRgItxj0xwHfutBmN-150" value="补充协议列表-功能相关" style="text;html=1;align=center;verticalAlign=middle;resizable=0;points=[];autosize=1;strokeColor=none;fillColor=none;fontSize=20;" vertex="1" parent="1">
          <mxGeometry x="-1280" y="410" width="220" height="30" as="geometry" />
        </mxCell>
        <mxCell id="c3yYRgItxj0xwHfutBmN-151" value="冲突审批列表-功能相关" style="text;html=1;align=center;verticalAlign=middle;resizable=0;points=[];autosize=1;strokeColor=none;fillColor=none;fontSize=20;" vertex="1" parent="1">
          <mxGeometry x="-1280" y="1000" width="220" height="30" as="geometry" />
        </mxCell>
        <mxCell id="c3yYRgItxj0xwHfutBmN-181" value="冲突落冲突表" style="text;html=1;align=center;verticalAlign=middle;resizable=0;points=[];autosize=1;strokeColor=none;fillColor=none;fontSize=12;" vertex="1" parent="1">
          <mxGeometry x="-1035" y="1110" width="90" height="20" as="geometry" />
        </mxCell>
        <mxCell id="c3yYRgItxj0xwHfutBmN-153" value="WF-PC" style="shape=umlLifeline;perimeter=lifelinePerimeter;whiteSpace=wrap;html=1;container=1;collapsible=0;recursiveResize=0;outlineConnect=0;rounded=0;fontFamily=Helvetica;fontSize=16;fontColor=default;strokeColor=default;fillColor=default;" vertex="1" parent="1">
          <mxGeometry x="-1280" y="1040" width="120" height="270" as="geometry" />
        </mxCell>
        <mxCell id="c3yYRgItxj0xwHfutBmN-154" value="" style="html=1;points=[];perimeter=orthogonalPerimeter;rounded=1;fontFamily=Helvetica;fontSize=19;fontColor=default;strokeColor=default;fillColor=default;" vertex="1" parent="c3yYRgItxj0xwHfutBmN-153">
          <mxGeometry x="55" y="90" width="10" height="40" as="geometry" />
        </mxCell>
        <mxCell id="c3yYRgItxj0xwHfutBmN-155" value="user" style="html=1;verticalAlign=bottom;startArrow=oval;endArrow=block;startSize=8;rounded=0;fontFamily=Helvetica;fontSize=19;fontColor=default;" edge="1" parent="c3yYRgItxj0xwHfutBmN-153" target="c3yYRgItxj0xwHfutBmN-154">
          <mxGeometry x="0.1429" relative="1" as="geometry">
            <mxPoint x="10" y="90" as="sourcePoint" />
            <mxPoint as="offset" />
          </mxGeometry>
        </mxCell>
        <mxCell id="c3yYRgItxj0xwHfutBmN-156" value="SCF-CAPI" style="shape=umlLifeline;perimeter=lifelinePerimeter;whiteSpace=wrap;html=1;container=1;collapsible=0;recursiveResize=0;outlineConnect=0;rounded=0;fontFamily=Helvetica;fontSize=16;fontColor=default;strokeColor=default;fillColor=default;" vertex="1" parent="1">
          <mxGeometry x="-1120" y="1040" width="120" height="270" as="geometry" />
        </mxCell>
        <mxCell id="c3yYRgItxj0xwHfutBmN-157" value="" style="html=1;points=[];perimeter=orthogonalPerimeter;rounded=1;fontFamily=Helvetica;fontSize=19;fontColor=default;strokeColor=default;fillColor=default;" vertex="1" parent="c3yYRgItxj0xwHfutBmN-156">
          <mxGeometry x="55" y="90" width="10" height="40" as="geometry" />
        </mxCell>
        <mxCell id="c3yYRgItxj0xwHfutBmN-158" value="SCF-CDAO" style="shape=umlLifeline;perimeter=lifelinePerimeter;whiteSpace=wrap;html=1;container=1;collapsible=0;recursiveResize=0;outlineConnect=0;rounded=0;fontFamily=Helvetica;fontSize=16;fontColor=default;strokeColor=default;fillColor=default;" vertex="1" parent="1">
          <mxGeometry x="-960" y="1040" width="120" height="270" as="geometry" />
        </mxCell>
        <mxCell id="c3yYRgItxj0xwHfutBmN-159" value="" style="html=1;points=[];perimeter=orthogonalPerimeter;rounded=1;fontFamily=Helvetica;fontSize=19;fontColor=default;strokeColor=default;fillColor=default;" vertex="1" parent="c3yYRgItxj0xwHfutBmN-158">
          <mxGeometry x="55" y="90" width="10" height="40" as="geometry" />
        </mxCell>
        <mxCell id="c3yYRgItxj0xwHfutBmN-160" style="edgeStyle=orthogonalEdgeStyle;rounded=0;orthogonalLoop=1;jettySize=auto;html=1;entryX=0;entryY=0.15;entryDx=0;entryDy=0;entryPerimeter=0;fontSize=12;" edge="1" parent="1" source="c3yYRgItxj0xwHfutBmN-154" target="c3yYRgItxj0xwHfutBmN-157">
          <mxGeometry relative="1" as="geometry">
            <Array as="points">
              <mxPoint x="-1180" y="1136" />
              <mxPoint x="-1180" y="1136" />
            </Array>
          </mxGeometry>
        </mxCell>
        <mxCell id="c3yYRgItxj0xwHfutBmN-161" style="edgeStyle=orthogonalEdgeStyle;rounded=0;orthogonalLoop=1;jettySize=auto;html=1;entryX=0.1;entryY=0.175;entryDx=0;entryDy=0;entryPerimeter=0;fontSize=12;" edge="1" parent="1" source="c3yYRgItxj0xwHfutBmN-157" target="c3yYRgItxj0xwHfutBmN-159">
          <mxGeometry relative="1" as="geometry">
            <Array as="points">
              <mxPoint x="-1020" y="1137" />
              <mxPoint x="-1020" y="1137" />
            </Array>
          </mxGeometry>
        </mxCell>
        <mxCell id="c3yYRgItxj0xwHfutBmN-162" style="edgeStyle=orthogonalEdgeStyle;rounded=0;orthogonalLoop=1;jettySize=auto;html=1;entryX=1.2;entryY=0.825;entryDx=0;entryDy=0;entryPerimeter=0;fontSize=12;" edge="1" parent="1" source="c3yYRgItxj0xwHfutBmN-159" target="c3yYRgItxj0xwHfutBmN-157">
          <mxGeometry relative="1" as="geometry">
            <Array as="points">
              <mxPoint x="-940" y="1163" />
              <mxPoint x="-940" y="1163" />
            </Array>
          </mxGeometry>
        </mxCell>
        <mxCell id="c3yYRgItxj0xwHfutBmN-163" style="edgeStyle=orthogonalEdgeStyle;rounded=0;orthogonalLoop=1;jettySize=auto;html=1;entryX=0.9;entryY=0.875;entryDx=0;entryDy=0;entryPerimeter=0;fontSize=12;" edge="1" parent="1" source="c3yYRgItxj0xwHfutBmN-157" target="c3yYRgItxj0xwHfutBmN-154">
          <mxGeometry relative="1" as="geometry">
            <Array as="points">
              <mxPoint x="-1100" y="1165" />
              <mxPoint x="-1100" y="1165" />
            </Array>
          </mxGeometry>
        </mxCell>
        <mxCell id="c3yYRgItxj0xwHfutBmN-164" value="" style="html=1;points=[];perimeter=orthogonalPerimeter;rounded=1;fontFamily=Helvetica;fontSize=19;fontColor=default;strokeColor=default;fillColor=default;" vertex="1" parent="1">
          <mxGeometry x="-1225" y="1210" width="10" height="40" as="geometry" />
        </mxCell>
        <mxCell id="c3yYRgItxj0xwHfutBmN-165" value="user" style="html=1;verticalAlign=bottom;startArrow=oval;endArrow=block;startSize=8;rounded=0;fontFamily=Helvetica;fontSize=19;fontColor=default;" edge="1" parent="1" target="c3yYRgItxj0xwHfutBmN-164">
          <mxGeometry x="0.1429" relative="1" as="geometry">
            <mxPoint x="-1270" y="1210" as="sourcePoint" />
            <mxPoint as="offset" />
          </mxGeometry>
        </mxCell>
        <mxCell id="c3yYRgItxj0xwHfutBmN-166" value="" style="html=1;points=[];perimeter=orthogonalPerimeter;rounded=1;fontFamily=Helvetica;fontSize=19;fontColor=default;strokeColor=default;fillColor=default;" vertex="1" parent="1">
          <mxGeometry x="-1065" y="1210" width="10" height="40" as="geometry" />
        </mxCell>
        <mxCell id="c3yYRgItxj0xwHfutBmN-167" value="" style="html=1;points=[];perimeter=orthogonalPerimeter;rounded=1;fontFamily=Helvetica;fontSize=19;fontColor=default;strokeColor=default;fillColor=default;" vertex="1" parent="1">
          <mxGeometry x="-905" y="1210" width="10" height="40" as="geometry" />
        </mxCell>
        <mxCell id="c3yYRgItxj0xwHfutBmN-168" style="edgeStyle=orthogonalEdgeStyle;rounded=0;orthogonalLoop=1;jettySize=auto;html=1;entryX=0;entryY=0.15;entryDx=0;entryDy=0;entryPerimeter=0;fontSize=12;" edge="1" parent="1" source="c3yYRgItxj0xwHfutBmN-164" target="c3yYRgItxj0xwHfutBmN-166">
          <mxGeometry relative="1" as="geometry">
            <Array as="points">
              <mxPoint x="-1180" y="1216" />
              <mxPoint x="-1180" y="1216" />
            </Array>
          </mxGeometry>
        </mxCell>
        <mxCell id="c3yYRgItxj0xwHfutBmN-169" style="edgeStyle=orthogonalEdgeStyle;rounded=0;orthogonalLoop=1;jettySize=auto;html=1;entryX=0.1;entryY=0.175;entryDx=0;entryDy=0;entryPerimeter=0;fontSize=12;" edge="1" parent="1" source="c3yYRgItxj0xwHfutBmN-166" target="c3yYRgItxj0xwHfutBmN-167">
          <mxGeometry relative="1" as="geometry">
            <Array as="points">
              <mxPoint x="-1020" y="1217" />
              <mxPoint x="-1020" y="1217" />
            </Array>
          </mxGeometry>
        </mxCell>
        <mxCell id="c3yYRgItxj0xwHfutBmN-170" style="edgeStyle=orthogonalEdgeStyle;rounded=0;orthogonalLoop=1;jettySize=auto;html=1;entryX=1.2;entryY=0.825;entryDx=0;entryDy=0;entryPerimeter=0;fontSize=12;" edge="1" parent="1" source="c3yYRgItxj0xwHfutBmN-167" target="c3yYRgItxj0xwHfutBmN-166">
          <mxGeometry relative="1" as="geometry">
            <Array as="points">
              <mxPoint x="-940" y="1243" />
              <mxPoint x="-940" y="1243" />
            </Array>
          </mxGeometry>
        </mxCell>
        <mxCell id="c3yYRgItxj0xwHfutBmN-171" style="edgeStyle=orthogonalEdgeStyle;rounded=0;orthogonalLoop=1;jettySize=auto;html=1;entryX=0.9;entryY=0.875;entryDx=0;entryDy=0;entryPerimeter=0;fontSize=12;" edge="1" parent="1" source="c3yYRgItxj0xwHfutBmN-166" target="c3yYRgItxj0xwHfutBmN-164">
          <mxGeometry relative="1" as="geometry">
            <Array as="points">
              <mxPoint x="-1100" y="1245" />
              <mxPoint x="-1100" y="1245" />
            </Array>
          </mxGeometry>
        </mxCell>
        <mxCell id="c3yYRgItxj0xwHfutBmN-180" value="新增关联公司增加&lt;br&gt;冲突审批" style="text;html=1;align=center;verticalAlign=middle;resizable=0;points=[];autosize=1;strokeColor=none;fillColor=none;fontSize=12;" vertex="1" parent="1">
          <mxGeometry x="-1200" y="1105" width="110" height="30" as="geometry" />
        </mxCell>
        <mxCell id="c3yYRgItxj0xwHfutBmN-182" value="冲突项格式变更&lt;br&gt;相同公司冲突项合并" style="text;html=1;align=center;verticalAlign=middle;resizable=0;points=[];autosize=1;strokeColor=none;fillColor=none;fontSize=12;" vertex="1" parent="1">
          <mxGeometry x="-1205" y="1185" width="120" height="30" as="geometry" />
        </mxCell>
        <mxCell id="c3yYRgItxj0xwHfutBmN-183" value="冲突落冲突表" style="text;html=1;align=center;verticalAlign=middle;resizable=0;points=[];autosize=1;strokeColor=none;fillColor=none;fontSize=12;" vertex="1" parent="1">
          <mxGeometry x="-1030" y="1190" width="90" height="20" as="geometry" />
        </mxCell>
        <mxCell id="c3yYRgItxj0xwHfutBmN-184" value="美事打卡-功能相关" style="text;html=1;align=center;verticalAlign=middle;resizable=0;points=[];autosize=1;strokeColor=none;fillColor=none;fontSize=20;" vertex="1" parent="1">
          <mxGeometry x="-1280" y="1370" width="180" height="30" as="geometry" />
        </mxCell>
        <mxCell id="c3yYRgItxj0xwHfutBmN-186" value="WF-PC" style="shape=umlLifeline;perimeter=lifelinePerimeter;whiteSpace=wrap;html=1;container=1;collapsible=0;recursiveResize=0;outlineConnect=0;rounded=0;fontFamily=Helvetica;fontSize=16;fontColor=default;strokeColor=default;fillColor=default;" vertex="1" parent="1">
          <mxGeometry x="-1280" y="1400" width="120" height="160" as="geometry" />
        </mxCell>
        <mxCell id="c3yYRgItxj0xwHfutBmN-187" value="" style="html=1;points=[];perimeter=orthogonalPerimeter;rounded=1;fontFamily=Helvetica;fontSize=19;fontColor=default;strokeColor=default;fillColor=default;" vertex="1" parent="c3yYRgItxj0xwHfutBmN-186">
          <mxGeometry x="55" y="90" width="10" height="40" as="geometry" />
        </mxCell>
        <mxCell id="c3yYRgItxj0xwHfutBmN-188" value="user" style="html=1;verticalAlign=bottom;startArrow=oval;endArrow=block;startSize=8;rounded=0;fontFamily=Helvetica;fontSize=19;fontColor=default;" edge="1" parent="c3yYRgItxj0xwHfutBmN-186" target="c3yYRgItxj0xwHfutBmN-187">
          <mxGeometry x="0.1429" relative="1" as="geometry">
            <mxPoint x="10" y="90" as="sourcePoint" />
            <mxPoint as="offset" />
          </mxGeometry>
        </mxCell>
        <mxCell id="c3yYRgItxj0xwHfutBmN-189" value="SCF-CAPI" style="shape=umlLifeline;perimeter=lifelinePerimeter;whiteSpace=wrap;html=1;container=1;collapsible=0;recursiveResize=0;outlineConnect=0;rounded=0;fontFamily=Helvetica;fontSize=16;fontColor=default;strokeColor=default;fillColor=default;" vertex="1" parent="1">
          <mxGeometry x="-1120" y="1400" width="120" height="160" as="geometry" />
        </mxCell>
        <mxCell id="c3yYRgItxj0xwHfutBmN-190" value="" style="html=1;points=[];perimeter=orthogonalPerimeter;rounded=1;fontFamily=Helvetica;fontSize=19;fontColor=default;strokeColor=default;fillColor=default;" vertex="1" parent="c3yYRgItxj0xwHfutBmN-189">
          <mxGeometry x="55" y="90" width="10" height="40" as="geometry" />
        </mxCell>
        <mxCell id="c3yYRgItxj0xwHfutBmN-213" value="拜访客户接口逻辑变更&lt;br&gt;查询范围扩大" style="text;html=1;align=center;verticalAlign=middle;resizable=0;points=[];autosize=1;strokeColor=none;fillColor=none;fontSize=12;" vertex="1" parent="c3yYRgItxj0xwHfutBmN-189">
          <mxGeometry x="-95" y="65" width="140" height="30" as="geometry" />
        </mxCell>
        <mxCell id="c3yYRgItxj0xwHfutBmN-191" value="SCF-CDAO" style="shape=umlLifeline;perimeter=lifelinePerimeter;whiteSpace=wrap;html=1;container=1;collapsible=0;recursiveResize=0;outlineConnect=0;rounded=0;fontFamily=Helvetica;fontSize=16;fontColor=default;strokeColor=default;fillColor=default;" vertex="1" parent="1">
          <mxGeometry x="-960" y="1400" width="120" height="160" as="geometry" />
        </mxCell>
        <mxCell id="c3yYRgItxj0xwHfutBmN-192" value="" style="html=1;points=[];perimeter=orthogonalPerimeter;rounded=1;fontFamily=Helvetica;fontSize=19;fontColor=default;strokeColor=default;fillColor=default;" vertex="1" parent="c3yYRgItxj0xwHfutBmN-191">
          <mxGeometry x="55" y="90" width="10" height="40" as="geometry" />
        </mxCell>
        <mxCell id="c3yYRgItxj0xwHfutBmN-193" style="edgeStyle=orthogonalEdgeStyle;rounded=0;orthogonalLoop=1;jettySize=auto;html=1;entryX=0;entryY=0.15;entryDx=0;entryDy=0;entryPerimeter=0;fontSize=12;" edge="1" parent="1" source="c3yYRgItxj0xwHfutBmN-187" target="c3yYRgItxj0xwHfutBmN-190">
          <mxGeometry relative="1" as="geometry">
            <Array as="points">
              <mxPoint x="-1180" y="1496" />
              <mxPoint x="-1180" y="1496" />
            </Array>
          </mxGeometry>
        </mxCell>
        <mxCell id="c3yYRgItxj0xwHfutBmN-194" style="edgeStyle=orthogonalEdgeStyle;rounded=0;orthogonalLoop=1;jettySize=auto;html=1;entryX=0.1;entryY=0.175;entryDx=0;entryDy=0;entryPerimeter=0;fontSize=12;" edge="1" parent="1" source="c3yYRgItxj0xwHfutBmN-190" target="c3yYRgItxj0xwHfutBmN-192">
          <mxGeometry relative="1" as="geometry">
            <Array as="points">
              <mxPoint x="-1020" y="1497" />
              <mxPoint x="-1020" y="1497" />
            </Array>
          </mxGeometry>
        </mxCell>
        <mxCell id="c3yYRgItxj0xwHfutBmN-195" style="edgeStyle=orthogonalEdgeStyle;rounded=0;orthogonalLoop=1;jettySize=auto;html=1;entryX=1.2;entryY=0.825;entryDx=0;entryDy=0;entryPerimeter=0;fontSize=12;" edge="1" parent="1" source="c3yYRgItxj0xwHfutBmN-192" target="c3yYRgItxj0xwHfutBmN-190">
          <mxGeometry relative="1" as="geometry">
            <Array as="points">
              <mxPoint x="-940" y="1523" />
              <mxPoint x="-940" y="1523" />
            </Array>
          </mxGeometry>
        </mxCell>
        <mxCell id="c3yYRgItxj0xwHfutBmN-196" style="edgeStyle=orthogonalEdgeStyle;rounded=0;orthogonalLoop=1;jettySize=auto;html=1;entryX=0.9;entryY=0.875;entryDx=0;entryDy=0;entryPerimeter=0;fontSize=12;" edge="1" parent="1" source="c3yYRgItxj0xwHfutBmN-190" target="c3yYRgItxj0xwHfutBmN-187">
          <mxGeometry relative="1" as="geometry">
            <Array as="points">
              <mxPoint x="-1100" y="1525" />
              <mxPoint x="-1100" y="1525" />
            </Array>
          </mxGeometry>
        </mxCell>
        <mxCell id="c3yYRgItxj0xwHfutBmN-214" value="查询该条件下的客户列表" style="text;html=1;align=center;verticalAlign=middle;resizable=0;points=[];autosize=1;strokeColor=none;fillColor=none;fontSize=12;" vertex="1" parent="1">
          <mxGeometry x="-1055" y="1470" width="150" height="20" as="geometry" />
        </mxCell>
        <mxCell id="c3yYRgItxj0xwHfutBmN-215" value="魔派数据对接-订单项目功能相关" style="text;html=1;align=center;verticalAlign=middle;resizable=0;points=[];autosize=1;strokeColor=none;fillColor=none;fontSize=20;" vertex="1" parent="1">
          <mxGeometry x="-1280" y="1600" width="300" height="30" as="geometry" />
        </mxCell>
        <mxCell id="c3yYRgItxj0xwHfutBmN-220" value="SCF-CAPI" style="shape=umlLifeline;perimeter=lifelinePerimeter;whiteSpace=wrap;html=1;container=1;collapsible=0;recursiveResize=0;outlineConnect=0;rounded=0;fontFamily=Helvetica;fontSize=16;fontColor=default;strokeColor=default;fillColor=default;" vertex="1" parent="1">
          <mxGeometry x="-1280" y="1640" width="120" height="200" as="geometry" />
        </mxCell>
        <mxCell id="c3yYRgItxj0xwHfutBmN-221" value="" style="html=1;points=[];perimeter=orthogonalPerimeter;rounded=1;fontFamily=Helvetica;fontSize=19;fontColor=default;strokeColor=default;fillColor=default;" vertex="1" parent="c3yYRgItxj0xwHfutBmN-220">
          <mxGeometry x="55" y="90" width="10" height="40" as="geometry" />
        </mxCell>
        <mxCell id="c3yYRgItxj0xwHfutBmN-222" value="SCF-CDAO" style="shape=umlLifeline;perimeter=lifelinePerimeter;whiteSpace=wrap;html=1;container=1;collapsible=0;recursiveResize=0;outlineConnect=0;rounded=0;fontFamily=Helvetica;fontSize=16;fontColor=default;strokeColor=default;fillColor=default;" vertex="1" parent="1">
          <mxGeometry x="-1120" y="1640" width="120" height="200" as="geometry" />
        </mxCell>
        <mxCell id="c3yYRgItxj0xwHfutBmN-223" value="" style="html=1;points=[];perimeter=orthogonalPerimeter;rounded=1;fontFamily=Helvetica;fontSize=19;fontColor=default;strokeColor=default;fillColor=default;" vertex="1" parent="c3yYRgItxj0xwHfutBmN-222">
          <mxGeometry x="55" y="90" width="10" height="40" as="geometry" />
        </mxCell>
        <mxCell id="c3yYRgItxj0xwHfutBmN-247" value="提供查询订单SCF接口" style="text;html=1;align=center;verticalAlign=middle;resizable=0;points=[];autosize=1;strokeColor=none;fillColor=none;fontSize=12;" vertex="1" parent="c3yYRgItxj0xwHfutBmN-222">
          <mxGeometry x="-90" y="70" width="140" height="20" as="geometry" />
        </mxCell>
        <mxCell id="c3yYRgItxj0xwHfutBmN-225" style="edgeStyle=orthogonalEdgeStyle;rounded=0;orthogonalLoop=1;jettySize=auto;html=1;entryX=0.1;entryY=0.175;entryDx=0;entryDy=0;entryPerimeter=0;fontSize=12;" edge="1" parent="1" source="c3yYRgItxj0xwHfutBmN-221" target="c3yYRgItxj0xwHfutBmN-223">
          <mxGeometry relative="1" as="geometry">
            <Array as="points">
              <mxPoint x="-1180" y="1737" />
              <mxPoint x="-1180" y="1737" />
            </Array>
          </mxGeometry>
        </mxCell>
        <mxCell id="c3yYRgItxj0xwHfutBmN-226" style="edgeStyle=orthogonalEdgeStyle;rounded=0;orthogonalLoop=1;jettySize=auto;html=1;entryX=1.2;entryY=0.825;entryDx=0;entryDy=0;entryPerimeter=0;fontSize=12;" edge="1" parent="1" source="c3yYRgItxj0xwHfutBmN-223" target="c3yYRgItxj0xwHfutBmN-221">
          <mxGeometry relative="1" as="geometry">
            <Array as="points">
              <mxPoint x="-1100" y="1763" />
              <mxPoint x="-1100" y="1763" />
            </Array>
          </mxGeometry>
        </mxCell>
        <mxCell id="c3yYRgItxj0xwHfutBmN-248" value="SCF-CONS" style="shape=umlLifeline;perimeter=lifelinePerimeter;whiteSpace=wrap;html=1;container=1;collapsible=0;recursiveResize=0;outlineConnect=0;rounded=0;fontFamily=Helvetica;fontSize=16;fontColor=default;strokeColor=default;fillColor=default;" vertex="1" parent="1">
          <mxGeometry x="-1280" y="1860" width="120" height="200" as="geometry" />
        </mxCell>
        <mxCell id="c3yYRgItxj0xwHfutBmN-249" value="" style="html=1;points=[];perimeter=orthogonalPerimeter;rounded=1;fontFamily=Helvetica;fontSize=19;fontColor=default;strokeColor=default;fillColor=default;" vertex="1" parent="c3yYRgItxj0xwHfutBmN-248">
          <mxGeometry x="55" y="90" width="10" height="40" as="geometry" />
        </mxCell>
        <mxCell id="c3yYRgItxj0xwHfutBmN-258" value="" style="edgeStyle=orthogonalEdgeStyle;rounded=0;orthogonalLoop=1;jettySize=auto;html=1;fontSize=12;" edge="1" parent="1" source="c3yYRgItxj0xwHfutBmN-250" target="c3yYRgItxj0xwHfutBmN-255">
          <mxGeometry relative="1" as="geometry" />
        </mxCell>
        <mxCell id="c3yYRgItxj0xwHfutBmN-250" value="SCF-CAPI" style="shape=umlLifeline;perimeter=lifelinePerimeter;whiteSpace=wrap;html=1;container=1;collapsible=0;recursiveResize=0;outlineConnect=0;rounded=0;fontFamily=Helvetica;fontSize=16;fontColor=default;strokeColor=default;fillColor=default;" vertex="1" parent="1">
          <mxGeometry x="-1120" y="1860" width="120" height="200" as="geometry" />
        </mxCell>
        <mxCell id="c3yYRgItxj0xwHfutBmN-251" value="" style="html=1;points=[];perimeter=orthogonalPerimeter;rounded=1;fontFamily=Helvetica;fontSize=19;fontColor=default;strokeColor=default;fillColor=default;" vertex="1" parent="c3yYRgItxj0xwHfutBmN-250">
          <mxGeometry x="55" y="90" width="10" height="40" as="geometry" />
        </mxCell>
        <mxCell id="c3yYRgItxj0xwHfutBmN-252" value="&lt;div data-okr=&quot;%7B%22okrDelta%22%3A%5B%7B%22lineType%22%3A%22text%22%2C%22lineOptions%22%3A%7B%7D%2C%22lineContent%22%3A%5B%7B%22opType%22%3A%22text%22%2C%22options%22%3A%7B%22text%22%3A%22%E8%AE%A2%E5%8D%95%E5%85%B3%E8%81%94%E5%90%88%E5%90%8C%E5%90%8E%22%7D%7D%5D%7D%5D%2C%22businessKey%22%3A%22lark-doc%22%7D&quot; class=&quot;okr-block-clipboard&quot;&gt;&lt;/div&gt;&lt;div style=&quot;&quot; data-line-index=&quot;0&quot; data-zone-id=&quot;0&quot;&gt;订单关联合同后&lt;span style=&quot;background-color: initial;&quot;&gt;同步订单&lt;/span&gt;&lt;/div&gt;&lt;div style=&quot;&quot; data-line-index=&quot;0&quot; data-zone-id=&quot;0&quot;&gt;&lt;span style=&quot;background-color: initial;&quot;&gt;和项目数据给魔派&lt;/span&gt;&lt;/div&gt;" style="text;html=1;align=center;verticalAlign=middle;resizable=0;points=[];autosize=1;strokeColor=none;fillColor=none;fontSize=12;" vertex="1" parent="c3yYRgItxj0xwHfutBmN-250">
          <mxGeometry x="-95" y="65" width="150" height="30" as="geometry" />
        </mxCell>
        <mxCell id="c3yYRgItxj0xwHfutBmN-253" style="edgeStyle=orthogonalEdgeStyle;rounded=0;orthogonalLoop=1;jettySize=auto;html=1;entryX=0.1;entryY=0.175;entryDx=0;entryDy=0;entryPerimeter=0;fontSize=12;" edge="1" parent="1" source="c3yYRgItxj0xwHfutBmN-249" target="c3yYRgItxj0xwHfutBmN-251">
          <mxGeometry relative="1" as="geometry">
            <Array as="points">
              <mxPoint x="-1180" y="1957" />
              <mxPoint x="-1180" y="1957" />
            </Array>
          </mxGeometry>
        </mxCell>
        <mxCell id="c3yYRgItxj0xwHfutBmN-254" style="edgeStyle=orthogonalEdgeStyle;rounded=0;orthogonalLoop=1;jettySize=auto;html=1;entryX=1.2;entryY=0.825;entryDx=0;entryDy=0;entryPerimeter=0;fontSize=12;" edge="1" parent="1" source="c3yYRgItxj0xwHfutBmN-251" target="c3yYRgItxj0xwHfutBmN-249">
          <mxGeometry relative="1" as="geometry">
            <Array as="points">
              <mxPoint x="-1100" y="1983" />
              <mxPoint x="-1100" y="1983" />
            </Array>
          </mxGeometry>
        </mxCell>
        <mxCell id="c3yYRgItxj0xwHfutBmN-255" value="WMB-SERVER" style="shape=umlLifeline;perimeter=lifelinePerimeter;whiteSpace=wrap;html=1;container=1;collapsible=0;recursiveResize=0;outlineConnect=0;rounded=0;fontFamily=Helvetica;fontSize=16;fontColor=default;strokeColor=default;fillColor=default;" vertex="1" parent="1">
          <mxGeometry x="-960" y="1860" width="120" height="200" as="geometry" />
        </mxCell>
        <mxCell id="c3yYRgItxj0xwHfutBmN-256" value="" style="html=1;points=[];perimeter=orthogonalPerimeter;rounded=1;fontFamily=Helvetica;fontSize=19;fontColor=default;strokeColor=default;fillColor=default;" vertex="1" parent="c3yYRgItxj0xwHfutBmN-255">
          <mxGeometry x="55" y="90" width="10" height="40" as="geometry" />
        </mxCell>
        <mxCell id="c3yYRgItxj0xwHfutBmN-257" value="&lt;div data-okr=&quot;%7B%22okrDelta%22%3A%5B%7B%22lineType%22%3A%22text%22%2C%22lineOptions%22%3A%7B%7D%2C%22lineContent%22%3A%5B%7B%22opType%22%3A%22text%22%2C%22options%22%3A%7B%22text%22%3A%22%E8%AE%A2%E5%8D%95%E5%85%B3%E8%81%94%E5%90%88%E5%90%8C%E5%90%8E%22%7D%7D%5D%7D%5D%2C%22businessKey%22%3A%22lark-doc%22%7D&quot; class=&quot;okr-block-clipboard&quot;&gt;&lt;/div&gt;&lt;div style=&quot;&quot; data-line-index=&quot;0&quot; data-zone-id=&quot;0&quot;&gt;将订单和项目数据丢入&lt;/div&gt;&lt;div style=&quot;&quot; data-line-index=&quot;0&quot; data-zone-id=&quot;0&quot;&gt;WMB对应队列&lt;/div&gt;" style="text;html=1;align=center;verticalAlign=middle;resizable=0;points=[];autosize=1;strokeColor=none;fillColor=none;fontSize=12;" vertex="1" parent="c3yYRgItxj0xwHfutBmN-255">
          <mxGeometry x="-90" y="65" width="140" height="30" as="geometry" />
        </mxCell>
      </root>
    </mxGraphModel>
  </diagram>
</mxfile>
